<svg width="42" height="48" viewBox="0 0 42 48" fill="none" xmlns="http://www.w3.org/2000/svg">
<g clip-path="url(#clip0_926_2049)">
<path d="M9.92041 0.000244141H41.9204V17.2748L40.3365 19.7497L41.9204 21.9523V32.0002H9.92041V15.7156L10.9104 14.5772L9.92041 13.4883V0.000244141Z" fill="#016FD0"/>
<path d="M16.1323 22.2986V17.2747H21.4518L22.0225 18.0187L22.6121 17.2747H41.9204V21.9522C41.9204 21.9522 41.4155 22.2936 40.8315 22.2986H30.1401L29.4966 21.5067V22.2986H27.388V20.9467C27.388 20.9467 27.1 21.1354 26.4773 21.1354H25.7595V22.2986H22.567L21.9971 21.5387L21.4184 22.2986H16.1323Z" fill="white"/>
<path d="M9.92041 13.488L11.12 10.6914H13.1945L13.8752 12.2579V10.6914H16.4541L16.8593 11.8237L17.2522 10.6914H28.8284V11.2606C28.8284 11.2606 29.4369 10.6914 30.437 10.6914L34.1931 10.7045L34.8621 12.2506V10.6914H37.0202L37.6141 11.5795V10.6914H39.792V15.7154H37.6141L37.0449 14.8244V15.7154H33.8742L33.5554 14.9234H32.703L32.3893 15.7154H30.239C29.3785 15.7154 28.8284 15.1578 28.8284 15.1578V15.7154H25.5863L24.9428 14.9234V15.7154H12.8872L12.5685 14.9234H11.7188L11.4025 15.7154H9.92041V13.488Z" fill="white"/>
<path d="M11.5447 11.3108L9.92676 15.0726H10.9801L11.2787 14.3193H13.0142L13.3111 15.0726H14.3877L12.7713 11.3108H11.5447ZM12.1433 12.1863L12.6723 13.5026H11.6128L12.1433 12.1863Z" fill="#016FD0"/>
<path d="M14.499 15.0721V11.3103L15.9959 11.3159L16.8666 13.7412L17.7163 11.3103H19.2013V15.0721H18.2608V12.3002L17.2639 15.0721H16.4391L15.4395 12.3002V15.0721H14.499Z" fill="#016FD0"/>
<path d="M19.8447 15.0721V11.3103H22.9136V12.1518H20.7951V12.7952H22.8641V13.5872H20.7951V14.2554H22.9136V15.0721H19.8447Z" fill="#016FD0"/>
<path d="M23.458 11.3108V15.0726H24.3985V13.7362H24.7944L25.922 15.0726H27.0713L25.8339 13.6867C26.3417 13.6438 26.8656 13.2079 26.8656 12.5312C26.8656 11.7396 26.2443 11.3108 25.5508 11.3108H23.458ZM24.3985 12.1522H25.4735C25.7314 12.1522 25.919 12.354 25.919 12.5482C25.919 12.7981 25.6759 12.9442 25.4874 12.9442H24.3985V12.1522Z" fill="#016FD0"/>
<path d="M28.2098 15.0721H27.2495V11.3103H28.2098V15.0721Z" fill="#016FD0"/>
<path d="M30.4865 15.0721H30.2792C29.2764 15.0721 28.6675 14.282 28.6675 13.2067C28.6675 12.1048 29.2696 11.3103 30.536 11.3103H31.5754V12.2013H30.498C29.9839 12.2013 29.6203 12.6025 29.6203 13.2159C29.6203 13.9445 30.0361 14.2504 30.635 14.2504H30.8825L30.4865 15.0721Z" fill="#016FD0"/>
<path d="M32.533 11.3108L30.915 15.0726H31.9684L32.2669 14.3193H34.0024L34.2994 15.0726H35.376L33.7596 11.3108H32.533ZM33.1316 12.1863L33.6606 13.5026H32.601L33.1316 12.1863Z" fill="#016FD0"/>
<path d="M35.4858 15.0721V11.3103H36.6815L38.2082 13.6738V11.3103H39.1486V15.0721H37.9916L36.4263 12.6467V15.0721H35.4858Z" fill="#016FD0"/>
<path d="M16.7759 21.6551V17.8933H19.8447V18.7348H17.7262V19.3782H19.7952V20.1702H17.7262V20.8384H19.8447V21.6551H16.7759Z" fill="#016FD0"/>
<path d="M31.813 21.6551V17.8933H34.8818V18.7348H32.7633V19.3782H34.8224V20.1702H32.7633V20.8384H34.8818V21.6551H31.813Z" fill="#016FD0"/>
<path d="M19.9638 21.6551L21.458 19.7974L19.9282 17.8933H21.1131L22.0241 19.0704L22.9383 17.8933H24.0767L22.567 19.7742L24.064 21.6551H22.8793L21.9947 20.4966L21.1316 21.6551H19.9638Z" fill="#016FD0"/>
<path d="M24.1758 17.894V21.6558H25.141V20.4679H26.1309C26.9686 20.4679 27.6035 20.0235 27.6035 19.1593C27.6035 18.4434 27.1055 17.894 26.2531 17.894H24.1758ZM25.141 18.7448H26.1835C26.4541 18.7448 26.6476 18.9106 26.6476 19.1779C26.6476 19.4289 26.4551 19.611 26.1804 19.611H25.141V18.7448Z" fill="#016FD0"/>
<path d="M28.0117 17.8933V21.6551H28.9522V20.3187H29.3481L30.4758 21.6551H31.625L30.3876 20.2692C30.8954 20.2263 31.4193 19.7904 31.4193 19.1137C31.4193 18.3221 30.798 17.8933 30.1045 17.8933H28.0117ZM28.9522 18.7348H30.0272C30.2851 18.7348 30.4727 18.9365 30.4727 19.1307C30.4727 19.3807 30.2296 19.5267 30.0411 19.5267H28.9522V18.7348Z" fill="#016FD0"/>
<path d="M35.3177 21.6551V20.8384H37.1998C37.4783 20.8384 37.5989 20.6879 37.5989 20.5229C37.5989 20.3647 37.4787 20.2048 37.1998 20.2048H36.3493C35.61 20.2048 35.1982 19.7544 35.1982 19.0782C35.1982 18.475 35.5753 17.8933 36.6739 17.8933H38.5053L38.1093 18.7397H36.5254C36.2226 18.7397 36.1294 18.8986 36.1294 19.0503C36.1294 19.2063 36.2446 19.3782 36.4759 19.3782H37.3668C38.191 19.3782 38.5486 19.8457 38.5486 20.4579C38.5486 21.116 38.1501 21.6551 37.322 21.6551H35.3177Z" fill="#016FD0"/>
<path d="M38.7693 21.6551V20.8384H40.6514C40.9299 20.8384 41.0505 20.6879 41.0505 20.5229C41.0505 20.3647 40.9303 20.2048 40.6514 20.2048H39.8009C39.0616 20.2048 38.6499 19.7544 38.6499 19.0782C38.6499 18.475 39.027 17.8933 40.1255 17.8933H41.9569L41.561 18.7397H39.977C39.6743 18.7397 39.5811 18.8986 39.5811 19.0503C39.5811 19.2063 39.6962 19.3782 39.9276 19.3782H40.8185C41.6426 19.3782 42.0003 19.8457 42.0003 20.4579C42.0003 21.116 41.6018 21.6551 40.7736 21.6551H38.7693Z" fill="#016FD0"/>
</g>
<path d="M1.128 45V36.6H4.8C5.712 36.6 6.512 36.776 7.2 37.128C7.888 37.48 8.424 37.968 8.808 38.592C9.192 39.216 9.384 39.952 9.384 40.8C9.384 41.64 9.192 42.376 8.808 43.008C8.424 43.632 7.888 44.12 7.2 44.472C6.512 44.824 5.712 45 4.8 45H1.128ZM2.688 43.68H4.728C5.36 43.68 5.904 43.56 6.36 43.32C6.824 43.08 7.18 42.744 7.428 42.312C7.684 41.88 7.812 41.376 7.812 40.8C7.812 40.216 7.684 39.712 7.428 39.288C7.18 38.856 6.824 38.52 6.36 38.28C5.904 38.04 5.36 37.92 4.728 37.92H2.688V43.68ZM13.9101 45.084C13.1981 45.084 12.5741 44.944 12.0381 44.664C11.5101 44.376 11.0981 43.984 10.8021 43.488C10.5141 42.992 10.3701 42.428 10.3701 41.796C10.3701 41.156 10.5101 40.592 10.7901 40.104C11.0781 39.608 11.4701 39.22 11.9661 38.94C12.4701 38.66 13.0421 38.52 13.6821 38.52C14.3061 38.52 14.8621 38.656 15.3501 38.928C15.8381 39.2 16.2221 39.584 16.5021 40.08C16.7821 40.576 16.9221 41.16 16.9221 41.832C16.9221 41.896 16.9181 41.968 16.9101 42.048C16.9101 42.128 16.9061 42.204 16.8981 42.276H11.5581V41.28H16.1061L15.5181 41.592C15.5261 41.224 15.4501 40.9 15.2901 40.62C15.1301 40.34 14.9101 40.12 14.6301 39.96C14.3581 39.8 14.0421 39.72 13.6821 39.72C13.3141 39.72 12.9901 39.8 12.7101 39.96C12.4381 40.12 12.2221 40.344 12.0621 40.632C11.9101 40.912 11.8341 41.244 11.8341 41.628V41.868C11.8341 42.252 11.9221 42.592 12.0981 42.888C12.2741 43.184 12.5221 43.412 12.8421 43.572C13.1621 43.732 13.5301 43.812 13.9461 43.812C14.3061 43.812 14.6301 43.756 14.9181 43.644C15.2061 43.532 15.4621 43.356 15.6861 43.116L16.4901 44.04C16.2021 44.376 15.8381 44.636 15.3981 44.82C14.9661 44.996 14.4701 45.084 13.9101 45.084ZM12.6381 37.716L14.2581 36.072H16.0221L13.9341 37.716H12.6381ZM21.9149 45.084C21.3709 45.084 20.8869 44.964 20.4629 44.724C20.0389 44.484 19.7029 44.124 19.4549 43.644C19.2149 43.156 19.0949 42.54 19.0949 41.796C19.0949 41.044 19.2189 40.428 19.4669 39.948C19.7229 39.468 20.0629 39.112 20.4869 38.88C20.9189 38.64 21.3949 38.52 21.9149 38.52C22.5469 38.52 23.1029 38.656 23.5829 38.928C24.0709 39.2 24.4549 39.58 24.7349 40.068C25.0229 40.556 25.1669 41.132 25.1669 41.796C25.1669 42.46 25.0229 43.036 24.7349 43.524C24.4549 44.012 24.0709 44.396 23.5829 44.676C23.1029 44.948 22.5469 45.084 21.9149 45.084ZM18.3629 45V36.096H19.8629V40.08L19.7429 41.784L19.7909 43.488V45H18.3629ZM21.7469 43.8C22.1069 43.8 22.4269 43.72 22.7069 43.56C22.9949 43.4 23.2229 43.168 23.3909 42.864C23.5589 42.56 23.6429 42.204 23.6429 41.796C23.6429 41.38 23.5589 41.024 23.3909 40.728C23.2229 40.424 22.9949 40.192 22.7069 40.032C22.4269 39.872 22.1069 39.792 21.7469 39.792C21.3869 39.792 21.0629 39.872 20.7749 40.032C20.4869 40.192 20.2589 40.424 20.0909 40.728C19.9229 41.024 19.8389 41.38 19.8389 41.796C19.8389 42.204 19.9229 42.56 20.0909 42.864C20.2589 43.168 20.4869 43.4 20.7749 43.56C21.0629 43.72 21.3869 43.8 21.7469 43.8ZM26.5895 45V38.592H28.0895V45H26.5895ZM27.3455 37.536C27.0655 37.536 26.8335 37.448 26.6495 37.272C26.4735 37.096 26.3855 36.884 26.3855 36.636C26.3855 36.38 26.4735 36.168 26.6495 36C26.8335 35.824 27.0655 35.736 27.3455 35.736C27.6255 35.736 27.8535 35.82 28.0295 35.988C28.2135 36.148 28.3055 36.352 28.3055 36.6C28.3055 36.864 28.2175 37.088 28.0415 37.272C27.8655 37.448 27.6335 37.536 27.3455 37.536ZM32.4702 45.084C31.7662 45.084 31.2222 44.904 30.8382 44.544C30.4542 44.176 30.2622 43.636 30.2622 42.924V37.176H31.7622V42.888C31.7622 43.192 31.8382 43.428 31.9902 43.596C32.1502 43.764 32.3702 43.848 32.6502 43.848C32.9862 43.848 33.2662 43.76 33.4902 43.584L33.9102 44.652C33.7342 44.796 33.5182 44.904 33.2622 44.976C33.0062 45.048 32.7422 45.084 32.4702 45.084ZM29.2062 39.84V38.64H33.4782V39.84H29.2062ZM37.8132 45.084C37.1572 45.084 36.5732 44.944 36.0612 44.664C35.5492 44.376 35.1452 43.984 34.8492 43.488C34.5532 42.992 34.4052 42.428 34.4052 41.796C34.4052 41.156 34.5532 40.592 34.8492 40.104C35.1452 39.608 35.5492 39.22 36.0612 38.94C36.5732 38.66 37.1572 38.52 37.8132 38.52C38.4772 38.52 39.0652 38.66 39.5772 38.94C40.0972 39.22 40.5012 39.604 40.7892 40.092C41.0852 40.58 41.2332 41.148 41.2332 41.796C41.2332 42.428 41.0852 42.992 40.7892 43.488C40.5012 43.984 40.0972 44.376 39.5772 44.664C39.0652 44.944 38.4772 45.084 37.8132 45.084ZM37.8132 43.8C38.1812 43.8 38.5092 43.72 38.7972 43.56C39.0852 43.4 39.3092 43.168 39.4692 42.864C39.6372 42.56 39.7212 42.204 39.7212 41.796C39.7212 41.38 39.6372 41.024 39.4692 40.728C39.3092 40.424 39.0852 40.192 38.7972 40.032C38.5092 39.872 38.1852 39.792 37.8252 39.792C37.4572 39.792 37.1292 39.872 36.8412 40.032C36.5612 40.192 36.3372 40.424 36.1692 40.728C36.0012 41.024 35.9172 41.38 35.9172 41.796C35.9172 42.204 36.0012 42.56 36.1692 42.864C36.3372 43.168 36.5612 43.4 36.8412 43.56C37.1292 43.72 37.4532 43.8 37.8132 43.8Z" fill="black"/>
<defs>
<clipPath id="clip0_926_2049">
<rect width="32.0797" height="32" fill="white" transform="translate(9.92041)"/>
</clipPath>
</defs>
</svg>