<svg width="328" height="216" viewBox="0 0 328 216" fill="none" xmlns="http://www.w3.org/2000/svg">
<g clip-path="url(#clip0_912_2025)">
<rect width="328" height="216" rx="10" fill="#333333" fill-opacity="0.1"/>
<rect x="16" y="168" width="58" height="32" rx="4" fill="#333333" fill-opacity="0.7"/>
<path d="M26.338 186.634C26.0767 186.634 25.8293 186.569 25.596 186.438C25.3627 186.307 25.176 186.13 25.036 185.906C24.9053 185.673 24.84 185.407 24.84 185.108C24.84 184.819 24.9053 184.562 25.036 184.338C25.176 184.105 25.3627 183.923 25.596 183.792C25.8293 183.661 26.0767 183.596 26.338 183.596C26.618 183.596 26.87 183.661 27.094 183.792C27.3273 183.923 27.5093 184.105 27.64 184.338C27.78 184.562 27.85 184.819 27.85 185.108C27.85 185.407 27.78 185.673 27.64 185.906C27.5093 186.13 27.3273 186.307 27.094 186.438C26.87 186.569 26.618 186.634 26.338 186.634ZM31.0411 186.634C30.7798 186.634 30.5325 186.569 30.2991 186.438C30.0658 186.307 29.8791 186.13 29.7391 185.906C29.6085 185.673 29.5431 185.407 29.5431 185.108C29.5431 184.819 29.6085 184.562 29.7391 184.338C29.8791 184.105 30.0658 183.923 30.2991 183.792C30.5325 183.661 30.7798 183.596 31.0411 183.596C31.3211 183.596 31.5731 183.661 31.7971 183.792C32.0305 183.923 32.2125 184.105 32.3431 184.338C32.4831 184.562 32.5531 184.819 32.5531 185.108C32.5531 185.407 32.4831 185.673 32.3431 185.906C32.2125 186.13 32.0305 186.307 31.7971 186.438C31.5731 186.569 31.3211 186.634 31.0411 186.634ZM35.7443 186.634C35.4829 186.634 35.2356 186.569 35.0023 186.438C34.7689 186.307 34.5823 186.13 34.4423 185.906C34.3116 185.673 34.2463 185.407 34.2463 185.108C34.2463 184.819 34.3116 184.562 34.4423 184.338C34.5823 184.105 34.7689 183.923 35.0023 183.792C35.2356 183.661 35.4829 183.596 35.7443 183.596C36.0243 183.596 36.2763 183.661 36.5003 183.792C36.7336 183.923 36.9156 184.105 37.0463 184.338C37.1863 184.562 37.2563 184.819 37.2563 185.108C37.2563 185.407 37.1863 185.673 37.0463 185.906C36.9156 186.13 36.7336 186.307 36.5003 186.438C36.2763 186.569 36.0243 186.634 35.7443 186.634ZM40.4474 186.634C40.186 186.634 39.9387 186.569 39.7054 186.438C39.472 186.307 39.2854 186.13 39.1454 185.906C39.0147 185.673 38.9494 185.407 38.9494 185.108C38.9494 184.819 39.0147 184.562 39.1454 184.338C39.2854 184.105 39.472 183.923 39.7054 183.792C39.9387 183.661 40.186 183.596 40.4474 183.596C40.7274 183.596 40.9794 183.661 41.2034 183.792C41.4367 183.923 41.6187 184.105 41.7494 184.338C41.8894 184.562 41.9594 184.819 41.9594 185.108C41.9594 185.407 41.8894 185.673 41.7494 185.906C41.6187 186.13 41.4367 186.307 41.2034 186.438C40.9794 186.569 40.7274 186.634 40.4474 186.634ZM49.006 186.634C48.7446 186.634 48.4973 186.569 48.264 186.438C48.0306 186.307 47.844 186.13 47.704 185.906C47.5733 185.673 47.508 185.407 47.508 185.108C47.508 184.819 47.5733 184.562 47.704 184.338C47.844 184.105 48.0306 183.923 48.264 183.792C48.4973 183.661 48.7446 183.596 49.006 183.596C49.286 183.596 49.538 183.661 49.762 183.792C49.9953 183.923 50.1773 184.105 50.308 184.338C50.448 184.562 50.518 184.819 50.518 185.108C50.518 185.407 50.448 185.673 50.308 185.906C50.1773 186.13 49.9953 186.307 49.762 186.438C49.538 186.569 49.286 186.634 49.006 186.634ZM53.7091 186.634C53.4478 186.634 53.2004 186.569 52.9671 186.438C52.7338 186.307 52.5471 186.13 52.4071 185.906C52.2764 185.673 52.2111 185.407 52.2111 185.108C52.2111 184.819 52.2764 184.562 52.4071 184.338C52.5471 184.105 52.7338 183.923 52.9671 183.792C53.2004 183.661 53.4478 183.596 53.7091 183.596C53.9891 183.596 54.2411 183.661 54.4651 183.792C54.6984 183.923 54.8804 184.105 55.0111 184.338C55.1511 184.562 55.2211 184.819 55.2211 185.108C55.2211 185.407 55.1511 185.673 55.0111 185.906C54.8804 186.13 54.6984 186.307 54.4651 186.438C54.2411 186.569 53.9891 186.634 53.7091 186.634ZM58.4122 186.634C58.1509 186.634 57.9036 186.569 57.6702 186.438C57.4369 186.307 57.2502 186.13 57.1102 185.906C56.9796 185.673 56.9142 185.407 56.9142 185.108C56.9142 184.819 56.9796 184.562 57.1102 184.338C57.2502 184.105 57.4369 183.923 57.6702 183.792C57.9036 183.661 58.1509 183.596 58.4122 183.596C58.6922 183.596 58.9442 183.661 59.1682 183.792C59.4016 183.923 59.5836 184.105 59.7142 184.338C59.8542 184.562 59.9242 184.819 59.9242 185.108C59.9242 185.407 59.8542 185.673 59.7142 185.906C59.5836 186.13 59.4016 186.307 59.1682 186.438C58.9442 186.569 58.6922 186.634 58.4122 186.634ZM63.1153 186.634C62.854 186.634 62.6067 186.569 62.3733 186.438C62.14 186.307 61.9533 186.13 61.8133 185.906C61.6827 185.673 61.6173 185.407 61.6173 185.108C61.6173 184.819 61.6827 184.562 61.8133 184.338C61.9533 184.105 62.14 183.923 62.3733 183.792C62.6067 183.661 62.854 183.596 63.1153 183.596C63.3953 183.596 63.6473 183.661 63.8713 183.792C64.1047 183.923 64.2867 184.105 64.4173 184.338C64.5573 184.562 64.6273 184.819 64.6273 185.108C64.6273 185.407 64.5573 185.673 64.4173 185.906C64.2867 186.13 64.1047 186.307 63.8713 186.438C63.6473 186.569 63.3953 186.634 63.1153 186.634Z" fill="white"/>
<circle cx="277" cy="160" r="180" fill="#CFD1D9"/>
<circle cx="351" cy="206" r="180" fill="#C5C7CF"/>
</g>
<defs>
<clipPath id="clip0_912_2025">
<rect width="328" height="216" rx="10" fill="white"/>
</clipPath>
</defs>
</svg>