<svg width="52" height="48" viewBox="0 0 52 48" fill="none" xmlns="http://www.w3.org/2000/svg">
<g clip-path="url(#clip0_926_2033)">
<path d="M33.0692 3.42261H19.0679V28.5773H33.0692V3.42261Z" fill="#FF5A00"/>
<path d="M20.0002 16C20.0002 10.8893 22.4027 6.3534 26.0895 3.42265C23.3762 1.28932 19.9535 0 16.2202 0C7.3762 0 0.220215 7.15599 0.220215 16C0.220215 24.844 7.3762 32 16.2202 32C19.9535 32 23.3762 30.7107 26.0895 28.5773C22.3976 25.688 20.0002 21.1107 20.0002 16Z" fill="#EB001B"/>
<path d="M51.9586 16C51.9586 24.844 44.8026 32 35.9586 32C32.2253 32 28.8026 30.7107 26.0894 28.5773C29.8227 25.6414 32.1787 21.1107 32.1787 16C32.1787 10.8893 29.7761 6.3534 26.0894 3.42265C28.7974 1.28932 32.2201 0 35.9534 0C44.8026 0 51.9586 7.20259 51.9586 16Z" fill="#F79E1B"/>
</g>
<path d="M11.128 45V36.6H14.8C15.712 36.6 16.512 36.776 17.2 37.128C17.888 37.48 18.424 37.968 18.808 38.592C19.192 39.216 19.384 39.952 19.384 40.8C19.384 41.64 19.192 42.376 18.808 43.008C18.424 43.632 17.888 44.12 17.2 44.472C16.512 44.824 15.712 45 14.8 45H11.128ZM12.688 43.68H14.728C15.36 43.68 15.904 43.56 16.36 43.32C16.824 43.08 17.18 42.744 17.428 42.312C17.684 41.88 17.812 41.376 17.812 40.8C17.812 40.216 17.684 39.712 17.428 39.288C17.18 38.856 16.824 38.52 16.36 38.28C15.904 38.04 15.36 37.92 14.728 37.92H12.688V43.68ZM23.9101 45.084C23.1981 45.084 22.5741 44.944 22.0381 44.664C21.5101 44.376 21.0981 43.984 20.8021 43.488C20.5141 42.992 20.3701 42.428 20.3701 41.796C20.3701 41.156 20.5101 40.592 20.7901 40.104C21.0781 39.608 21.4701 39.22 21.9661 38.94C22.4701 38.66 23.0421 38.52 23.6821 38.52C24.3061 38.52 24.8621 38.656 25.3501 38.928C25.8381 39.2 26.2221 39.584 26.5021 40.08C26.7821 40.576 26.9221 41.16 26.9221 41.832C26.9221 41.896 26.9181 41.968 26.9101 42.048C26.9101 42.128 26.9061 42.204 26.8981 42.276H21.5581V41.28H26.1061L25.5181 41.592C25.5261 41.224 25.4501 40.9 25.2901 40.62C25.1301 40.34 24.9101 40.12 24.6301 39.96C24.3581 39.8 24.0421 39.72 23.6821 39.72C23.3141 39.72 22.9901 39.8 22.7101 39.96C22.4381 40.12 22.2221 40.344 22.0621 40.632C21.9101 40.912 21.8341 41.244 21.8341 41.628V41.868C21.8341 42.252 21.9221 42.592 22.0981 42.888C22.2741 43.184 22.5221 43.412 22.8421 43.572C23.1621 43.732 23.5301 43.812 23.9461 43.812C24.3061 43.812 24.6301 43.756 24.9181 43.644C25.2061 43.532 25.4621 43.356 25.6861 43.116L26.4901 44.04C26.2021 44.376 25.8381 44.636 25.3981 44.82C24.9661 44.996 24.4701 45.084 23.9101 45.084ZM22.6381 37.716L24.2581 36.072H26.0221L23.9341 37.716H22.6381ZM31.9149 45.084C31.3709 45.084 30.8869 44.964 30.4629 44.724C30.0389 44.484 29.7029 44.124 29.4549 43.644C29.2149 43.156 29.0949 42.54 29.0949 41.796C29.0949 41.044 29.2189 40.428 29.4669 39.948C29.7229 39.468 30.0629 39.112 30.4869 38.88C30.9189 38.64 31.3949 38.52 31.9149 38.52C32.5469 38.52 33.1029 38.656 33.5829 38.928C34.0709 39.2 34.4549 39.58 34.7349 40.068C35.0229 40.556 35.1669 41.132 35.1669 41.796C35.1669 42.46 35.0229 43.036 34.7349 43.524C34.4549 44.012 34.0709 44.396 33.5829 44.676C33.1029 44.948 32.5469 45.084 31.9149 45.084ZM28.3629 45V36.096H29.8629V40.08L29.7429 41.784L29.7909 43.488V45H28.3629ZM31.7469 43.8C32.1069 43.8 32.4269 43.72 32.7069 43.56C32.9949 43.4 33.2229 43.168 33.3909 42.864C33.5589 42.56 33.6429 42.204 33.6429 41.796C33.6429 41.38 33.5589 41.024 33.3909 40.728C33.2229 40.424 32.9949 40.192 32.7069 40.032C32.4269 39.872 32.1069 39.792 31.7469 39.792C31.3869 39.792 31.0629 39.872 30.7749 40.032C30.4869 40.192 30.2589 40.424 30.0909 40.728C29.9229 41.024 29.8389 41.38 29.8389 41.796C29.8389 42.204 29.9229 42.56 30.0909 42.864C30.2589 43.168 30.4869 43.4 30.7749 43.56C31.0629 43.72 31.3869 43.8 31.7469 43.8ZM36.5895 45V38.592H38.0895V45H36.5895ZM37.3455 37.536C37.0655 37.536 36.8335 37.448 36.6495 37.272C36.4735 37.096 36.3855 36.884 36.3855 36.636C36.3855 36.38 36.4735 36.168 36.6495 36C36.8335 35.824 37.0655 35.736 37.3455 35.736C37.6255 35.736 37.8535 35.82 38.0295 35.988C38.2135 36.148 38.3055 36.352 38.3055 36.6C38.3055 36.864 38.2175 37.088 38.0415 37.272C37.8655 37.448 37.6335 37.536 37.3455 37.536ZM42.4702 45.084C41.7662 45.084 41.2222 44.904 40.8382 44.544C40.4542 44.176 40.2622 43.636 40.2622 42.924V37.176H41.7622V42.888C41.7622 43.192 41.8382 43.428 41.9902 43.596C42.1502 43.764 42.3702 43.848 42.6502 43.848C42.9862 43.848 43.2662 43.76 43.4902 43.584L43.9102 44.652C43.7342 44.796 43.5182 44.904 43.2622 44.976C43.0062 45.048 42.7422 45.084 42.4702 45.084ZM39.2062 39.84V38.64H43.4782V39.84H39.2062ZM47.8132 45.084C47.1572 45.084 46.5732 44.944 46.0612 44.664C45.5492 44.376 45.1452 43.984 44.8492 43.488C44.5532 42.992 44.4052 42.428 44.4052 41.796C44.4052 41.156 44.5532 40.592 44.8492 40.104C45.1452 39.608 45.5492 39.22 46.0612 38.94C46.5732 38.66 47.1572 38.52 47.8132 38.52C48.4772 38.52 49.0652 38.66 49.5772 38.94C50.0972 39.22 50.5012 39.604 50.7892 40.092C51.0852 40.58 51.2332 41.148 51.2332 41.796C51.2332 42.428 51.0852 42.992 50.7892 43.488C50.5012 43.984 50.0972 44.376 49.5772 44.664C49.0652 44.944 48.4772 45.084 47.8132 45.084ZM47.8132 43.8C48.1812 43.8 48.5092 43.72 48.7972 43.56C49.0852 43.4 49.3092 43.168 49.4692 42.864C49.6372 42.56 49.7212 42.204 49.7212 41.796C49.7212 41.38 49.6372 41.024 49.4692 40.728C49.3092 40.424 49.0852 40.192 48.7972 40.032C48.5092 39.872 48.1852 39.792 47.8252 39.792C47.4572 39.792 47.1292 39.872 46.8412 40.032C46.5612 40.192 46.3372 40.424 46.1692 40.728C46.0012 41.024 45.9172 41.38 45.9172 41.796C45.9172 42.204 46.0012 42.56 46.1692 42.864C46.3372 43.168 46.5612 43.4 46.8412 43.56C47.1292 43.72 47.4532 43.8 47.8132 43.8Z" fill="black"/>
<defs>
<clipPath id="clip0_926_2033">
<rect width="51.7799" height="32" fill="white" transform="translate(0.220215)"/>
</clipPath>
</defs>
</svg>