<svg width="75" height="40" viewBox="0 0 75 40" fill="none" xmlns="http://www.w3.org/2000/svg">
<g clip-path="url(#clip0_926_2019)">
<path d="M32.9779 23.6538H26.9707L30.7281 0.421143H36.735L32.9779 23.6538Z" fill="white"/>
<path d="M54.7544 0.989106C53.5695 0.519026 51.6902 0 49.3664 0C43.4341 0 39.2566 3.16343 39.231 7.68618C39.1817 11.0231 42.2219 12.8764 44.4958 13.9891C46.8199 15.126 47.6099 15.8681 47.6099 16.8815C47.5863 18.4379 45.7319 19.1553 44.0024 19.1553C41.604 19.1553 40.3189 18.7854 38.366 17.9195L37.575 17.5483L36.7344 22.7635C38.1433 23.4054 40.7391 23.975 43.4341 24C49.7373 24 53.8409 20.8855 53.8895 16.0658C53.9135 13.4211 52.3081 11.3946 48.8471 9.73863C46.746 8.67561 45.4593 7.95883 45.4593 6.87118C45.4839 5.8824 46.5476 4.86964 48.9193 4.86964C50.8722 4.82004 52.3071 5.28946 53.3941 5.75921L53.9374 6.00591L54.7544 0.989106Z" fill="white"/>
<path d="M62.7385 15.4233C63.2332 14.0886 65.1369 8.92298 65.1369 8.92298C65.1119 8.97258 65.6306 7.56366 65.9272 6.69872L66.3471 8.70059C66.3471 8.70059 67.4846 14.2617 67.7317 15.4233C66.7928 15.4233 63.925 15.4233 62.7385 15.4233ZM70.1537 0.421143H65.5071C64.0742 0.421143 62.9855 0.840962 62.3673 2.34876L53.4443 23.6535H59.7475C59.7475 23.6535 60.7853 20.786 61.0083 20.1684C61.6998 20.1684 67.8315 20.1684 68.7211 20.1684C68.8936 20.9841 69.4379 23.6535 69.4379 23.6535H75L70.1537 0.421143Z" fill="white"/>
<path d="M21.9534 0.421143L16.0703 16.2636L15.4275 13.0505C14.3398 9.34313 10.9287 5.31509 7.12207 3.31225L12.5107 23.6291H18.8632L28.3055 0.421143H21.9534Z" fill="white"/>
<path d="M10.6072 0.421143H0.942139L0.843262 0.890565C8.3826 2.81851 13.3758 7.46576 15.4272 13.0515L13.3262 2.37406C12.9802 0.890236 11.9172 0.470089 10.6072 0.421143Z" fill="white"/>
</g>
<path d="M34.128 37V28.6H37.8C38.712 28.6 39.512 28.776 40.2 29.128C40.888 29.48 41.424 29.968 41.808 30.592C42.192 31.216 42.384 31.952 42.384 32.8C42.384 33.64 42.192 34.376 41.808 35.008C41.424 35.632 40.888 36.12 40.2 36.472C39.512 36.824 38.712 37 37.8 37H34.128ZM35.688 35.68H37.728C38.36 35.68 38.904 35.56 39.36 35.32C39.824 35.08 40.18 34.744 40.428 34.312C40.684 33.88 40.812 33.376 40.812 32.8C40.812 32.216 40.684 31.712 40.428 31.288C40.18 30.856 39.824 30.52 39.36 30.28C38.904 30.04 38.36 29.92 37.728 29.92H35.688V35.68ZM46.9101 37.084C46.1981 37.084 45.5741 36.944 45.0381 36.664C44.5101 36.376 44.0981 35.984 43.8021 35.488C43.5141 34.992 43.3701 34.428 43.3701 33.796C43.3701 33.156 43.5101 32.592 43.7901 32.104C44.0781 31.608 44.4701 31.22 44.9661 30.94C45.4701 30.66 46.0421 30.52 46.6821 30.52C47.3061 30.52 47.8621 30.656 48.3501 30.928C48.8381 31.2 49.2221 31.584 49.5021 32.08C49.7821 32.576 49.9221 33.16 49.9221 33.832C49.9221 33.896 49.9181 33.968 49.9101 34.048C49.9101 34.128 49.9061 34.204 49.8981 34.276H44.5581V33.28H49.1061L48.5181 33.592C48.5261 33.224 48.4501 32.9 48.2901 32.62C48.1301 32.34 47.9101 32.12 47.6301 31.96C47.3581 31.8 47.0421 31.72 46.6821 31.72C46.3141 31.72 45.9901 31.8 45.7101 31.96C45.4381 32.12 45.2221 32.344 45.0621 32.632C44.9101 32.912 44.8341 33.244 44.8341 33.628V33.868C44.8341 34.252 44.9221 34.592 45.0981 34.888C45.2741 35.184 45.5221 35.412 45.8421 35.572C46.1621 35.732 46.5301 35.812 46.9461 35.812C47.3061 35.812 47.6301 35.756 47.9181 35.644C48.2061 35.532 48.4621 35.356 48.6861 35.116L49.4901 36.04C49.2021 36.376 48.8381 36.636 48.3981 36.82C47.9661 36.996 47.4701 37.084 46.9101 37.084ZM45.6381 29.716L47.2581 28.072H49.0221L46.9341 29.716H45.6381ZM54.9149 37.084C54.3709 37.084 53.8869 36.964 53.4629 36.724C53.0389 36.484 52.7029 36.124 52.4549 35.644C52.2149 35.156 52.0949 34.54 52.0949 33.796C52.0949 33.044 52.2189 32.428 52.4669 31.948C52.7229 31.468 53.0629 31.112 53.4869 30.88C53.9189 30.64 54.3949 30.52 54.9149 30.52C55.5469 30.52 56.1029 30.656 56.5829 30.928C57.0709 31.2 57.4549 31.58 57.7349 32.068C58.0229 32.556 58.1669 33.132 58.1669 33.796C58.1669 34.46 58.0229 35.036 57.7349 35.524C57.4549 36.012 57.0709 36.396 56.5829 36.676C56.1029 36.948 55.5469 37.084 54.9149 37.084ZM51.3629 37V28.096H52.8629V32.08L52.7429 33.784L52.7909 35.488V37H51.3629ZM54.7469 35.8C55.1069 35.8 55.4269 35.72 55.7069 35.56C55.9949 35.4 56.2229 35.168 56.3909 34.864C56.5589 34.56 56.6429 34.204 56.6429 33.796C56.6429 33.38 56.5589 33.024 56.3909 32.728C56.2229 32.424 55.9949 32.192 55.7069 32.032C55.4269 31.872 55.1069 31.792 54.7469 31.792C54.3869 31.792 54.0629 31.872 53.7749 32.032C53.4869 32.192 53.2589 32.424 53.0909 32.728C52.9229 33.024 52.8389 33.38 52.8389 33.796C52.8389 34.204 52.9229 34.56 53.0909 34.864C53.2589 35.168 53.4869 35.4 53.7749 35.56C54.0629 35.72 54.3869 35.8 54.7469 35.8ZM59.5895 37V30.592H61.0895V37H59.5895ZM60.3455 29.536C60.0655 29.536 59.8335 29.448 59.6495 29.272C59.4735 29.096 59.3855 28.884 59.3855 28.636C59.3855 28.38 59.4735 28.168 59.6495 28C59.8335 27.824 60.0655 27.736 60.3455 27.736C60.6255 27.736 60.8535 27.82 61.0295 27.988C61.2135 28.148 61.3055 28.352 61.3055 28.6C61.3055 28.864 61.2175 29.088 61.0415 29.272C60.8655 29.448 60.6335 29.536 60.3455 29.536ZM65.4702 37.084C64.7662 37.084 64.2222 36.904 63.8382 36.544C63.4542 36.176 63.2622 35.636 63.2622 34.924V29.176H64.7622V34.888C64.7622 35.192 64.8382 35.428 64.9902 35.596C65.1502 35.764 65.3702 35.848 65.6502 35.848C65.9862 35.848 66.2662 35.76 66.4902 35.584L66.9102 36.652C66.7342 36.796 66.5182 36.904 66.2622 36.976C66.0062 37.048 65.7422 37.084 65.4702 37.084ZM62.2062 31.84V30.64H66.4782V31.84H62.2062ZM70.8132 37.084C70.1572 37.084 69.5732 36.944 69.0612 36.664C68.5492 36.376 68.1452 35.984 67.8492 35.488C67.5532 34.992 67.4052 34.428 67.4052 33.796C67.4052 33.156 67.5532 32.592 67.8492 32.104C68.1452 31.608 68.5492 31.22 69.0612 30.94C69.5732 30.66 70.1572 30.52 70.8132 30.52C71.4772 30.52 72.0652 30.66 72.5772 30.94C73.0972 31.22 73.5012 31.604 73.7892 32.092C74.0852 32.58 74.2332 33.148 74.2332 33.796C74.2332 34.428 74.0852 34.992 73.7892 35.488C73.5012 35.984 73.0972 36.376 72.5772 36.664C72.0652 36.944 71.4772 37.084 70.8132 37.084ZM70.8132 35.8C71.1812 35.8 71.5092 35.72 71.7972 35.56C72.0852 35.4 72.3092 35.168 72.4692 34.864C72.6372 34.56 72.7212 34.204 72.7212 33.796C72.7212 33.38 72.6372 33.024 72.4692 32.728C72.3092 32.424 72.0852 32.192 71.7972 32.032C71.5092 31.872 71.1852 31.792 70.8252 31.792C70.4572 31.792 70.1292 31.872 69.8412 32.032C69.5612 32.192 69.3372 32.424 69.1692 32.728C69.0012 33.024 68.9172 33.38 68.9172 33.796C68.9172 34.204 69.0012 34.56 69.1692 34.864C69.3372 35.168 69.5612 35.4 69.8412 35.56C70.1292 35.72 70.4532 35.8 70.8132 35.8Z" fill="white"/>
<defs>
<clipPath id="clip0_926_2019">
<rect width="74.1569" height="24" fill="white" transform="translate(0.843262)"/>
</clipPath>
</defs>
</svg>
