<svg width="40" height="40" viewBox="0 0 40 40" fill="none" xmlns="http://www.w3.org/2000/svg">
<path d="M13.4947 31.5053C13.1771 31.1406 13.0124 30.7171 13.0006 30.2348C12.9888 29.7525 13.1535 29.3407 13.4947 28.9996L22.459 20.0353L13.4594 11.0357C13.1418 10.718 12.9888 10.3004 13.0006 9.78278C13.0124 9.26518 13.1771 8.84756 13.4947 8.52993C13.8594 8.16525 14.277 7.98879 14.7476 8.00054C15.2182 8.0123 15.624 8.18876 15.9652 8.52993L26.2353 18.8C26.4235 18.9883 26.5559 19.1824 26.6323 19.3824C26.7088 19.5824 26.747 19.8 26.747 20.0353C26.747 20.2706 26.7088 20.4882 26.6323 20.6882C26.5559 20.8882 26.4235 21.0823 26.2353 21.2705L16.0005 31.5053C15.6593 31.8465 15.2476 32.0112 14.7652 31.9994C14.2829 31.9876 13.8594 31.823 13.4947 31.5053Z" fill="#39528D"/>
</svg>
