<svg width="54" height="53" viewBox="0 0 54 53" fill="none" xmlns="http://www.w3.org/2000/svg">
<path d="M11.1335 44.9333C10.5557 44.9333 10.0779 44.7444 9.70016 44.3666C9.32239 43.9888 9.1335 43.5111 9.1335 42.9333V24.2666C9.1335 23.7333 9.3335 23.2777 9.7335 22.9C10.1335 22.5222 10.6002 22.3333 11.1335 22.3333C11.7113 22.3333 12.1891 22.5222 12.5668 22.9C12.9446 23.2777 13.1335 23.7555 13.1335 24.3333V43C13.1335 43.5333 12.9335 43.9888 12.5335 44.3666C12.1335 44.7444 11.6668 44.9333 11.1335 44.9333ZM27.2668 44.9333C26.6891 44.9333 26.2113 44.7444 25.8335 44.3666C25.4557 43.9888 25.2668 43.5111 25.2668 42.9333V24.2666C25.2668 23.7333 25.4668 23.2777 25.8668 22.9C26.2668 22.5222 26.7335 22.3333 27.2668 22.3333C27.8446 22.3333 28.3224 22.5222 28.7002 22.9C29.0779 23.2777 29.2668 23.7555 29.2668 24.3333V43C29.2668 43.5333 29.0668 43.9888 28.6668 44.3666C28.2668 44.7444 27.8002 44.9333 27.2668 44.9333ZM2.26683 52.9333C1.7335 52.9333 1.27794 52.7333 0.900163 52.3333C0.522385 51.9333 0.333496 51.4666 0.333496 50.9333C0.333496 50.3555 0.522385 49.8777 0.900163 49.5C1.27794 49.1222 1.75572 48.9333 2.3335 48.9333H51.7335C52.2668 48.9333 52.7224 49.1333 53.1002 49.5333C53.4779 49.9333 53.6668 50.4 53.6668 50.9333C53.6668 51.5111 53.4779 51.9888 53.1002 52.3666C52.7224 52.7444 52.2446 52.9333 51.6668 52.9333H2.26683ZM42.8668 44.9333C42.2891 44.9333 41.8113 44.7444 41.4335 44.3666C41.0557 43.9888 40.8668 43.5111 40.8668 42.9333V24.2666C40.8668 23.7333 41.0668 23.2777 41.4668 22.9C41.8668 22.5222 42.3335 22.3333 42.8668 22.3333C43.4446 22.3333 43.9224 22.5222 44.3002 22.9C44.6779 23.2777 44.8668 23.7555 44.8668 24.3333V43C44.8668 43.5333 44.6668 43.9888 44.2668 44.3666C43.8668 44.7444 43.4002 44.9333 42.8668 44.9333ZM29.0002 0.733285L52.2002 13.9333C52.6446 14.2 53.0002 14.5333 53.2668 14.9333C53.5335 15.3333 53.6668 15.7777 53.6668 16.2666C53.6668 16.8888 53.4224 17.3888 52.9335 17.7666C52.4446 18.1444 51.8891 18.3333 51.2668 18.3333H2.7335C2.11127 18.3333 1.55572 18.1444 1.06683 17.7666C0.577941 17.3888 0.333496 16.8888 0.333496 16.2666C0.333496 15.7777 0.477941 15.3222 0.766829 14.9C1.05572 14.4777 1.42239 14.1555 1.86683 13.9333L25.0002 0.733285C25.6224 0.377729 26.2891 0.199951 27.0002 0.199951C27.7113 0.199951 28.3779 0.377729 29.0002 0.733285Z" fill="#008744"/>
</svg>