<svg width="40" height="40" viewBox="0 0 40 40" fill="none" xmlns="http://www.w3.org/2000/svg">
<path d="M19.7947 32C19.2982 32 18.875 31.8232 18.525 31.4697C18.175 31.1161 18 30.6912 18 30.1947C18 29.6982 18.1768 29.275 18.5303 28.925C18.8838 28.575 19.3089 28.4 19.8053 28.4C20.3018 28.4 20.725 28.5768 21.075 28.9303C21.425 29.2839 21.6 29.7089 21.6 30.2053C21.6 30.7018 21.4232 31.125 21.0697 31.475C20.7161 31.825 20.2912 32 19.7947 32ZM19.7947 21.8C19.2982 21.8 18.875 21.6232 18.525 21.2697C18.175 20.9161 18 20.4911 18 19.9947C18 19.4982 18.1768 19.075 18.5303 18.725C18.8838 18.375 19.3089 18.2 19.8053 18.2C20.3018 18.2 20.725 18.3768 21.075 18.7303C21.425 19.0839 21.6 19.5089 21.6 20.0053C21.6 20.5018 21.4232 20.925 21.0697 21.275C20.7161 21.625 20.2912 21.8 19.7947 21.8ZM19.7947 11.6C19.2982 11.6 18.875 11.4232 18.525 11.0697C18.175 10.7162 18 10.2912 18 9.79468C18 9.29823 18.1768 8.875 18.5303 8.525C18.8838 8.175 19.3089 8 19.8053 8C20.3018 8 20.725 8.17677 21.075 8.53032C21.425 8.88385 21.6 9.30885 21.6 9.80533C21.6 10.3018 21.4232 10.725 21.0697 11.075C20.7161 11.425 20.2912 11.6 19.7947 11.6Z" fill="black"/>
</svg>
