<svg width="24" height="18" viewBox="0 0 24 18" fill="none" xmlns="http://www.w3.org/2000/svg">
<path d="M13.8182 10.1818C12.9091 10.1818 12.1363 9.86366 11.5 9.22729C10.8636 8.59093 10.5454 7.8182 10.5454 6.90911C10.5454 6.00002 10.8636 5.22729 11.5 4.59093C12.1363 3.95456 12.9091 3.63638 13.8182 3.63638C14.7273 3.63638 15.5 3.95456 16.1363 4.59093C16.7727 5.22729 17.0909 6.00002 17.0909 6.90911C17.0909 7.8182 16.7727 8.59093 16.1363 9.22729C15.5 9.86366 14.7273 10.1818 13.8182 10.1818ZM5.45452 13.8182C4.95452 13.8182 4.52649 13.6402 4.17044 13.2841C3.81438 12.9281 3.63635 12.5 3.63635 12V1.81816C3.63635 1.31816 3.81438 0.890137 4.17044 0.534082C4.52649 0.178027 4.95452 0 5.45452 0H22.1818C22.6818 0 23.1099 0.178027 23.4659 0.534082C23.822 0.890137 24 1.31816 24 1.81816V12C24 12.5 23.822 12.9281 23.4659 13.2841C23.1099 13.6402 22.6818 13.8182 22.1818 13.8182H5.45452ZM7.99999 12H19.6364C19.6364 11.2909 19.8833 10.6894 20.3773 10.1955C20.8712 9.70153 21.4727 9.45455 22.1818 9.45455V4.36364C21.4727 4.36364 20.8712 4.11666 20.3773 3.62272C19.8833 3.12877 19.6364 2.52726 19.6364 1.81816H7.99999C7.99999 2.52726 7.75302 3.12877 7.25907 3.62272C6.76513 4.11666 6.16361 4.36364 5.45452 4.36364V9.45455C6.16361 9.45455 6.76513 9.70153 7.25907 10.1955C7.75302 10.6894 7.99999 11.2909 7.99999 12ZM1.81816 17.4545C1.31816 17.4545 0.890136 17.2765 0.534082 16.9205C0.178027 16.5644 0 16.1364 0 15.6364V4.18181C0 3.92425 0.0874273 3.70834 0.262282 3.53408C0.437136 3.35985 0.6538 3.27273 0.912273 3.27273C1.17075 3.27273 1.38635 3.35985 1.55907 3.53408C1.7318 3.70834 1.81816 3.92425 1.81816 4.18181V15.6364H19.8182C20.0758 15.6364 20.2917 15.7238 20.4659 15.8987C20.6402 16.0735 20.7273 16.2902 20.7273 16.5487C20.7273 16.8071 20.6402 17.0227 20.4659 17.1955C20.2917 17.3682 20.0758 17.4545 19.8182 17.4545H1.81816Z" fill="black"/>
</svg>