<svg width="50" height="50" viewBox="0 0 50 50" fill="none" xmlns="http://www.w3.org/2000/svg">
<circle cx="25" cy="25" r="24" stroke="#333333" stroke-opacity="0.1" stroke-width="2"/>
<path d="M14 36.9593V13C14.0136 13 14.0492 13.0017 14.1068 13.005C14.1644 13.0084 14.2441 13.061 14.3458 13.1627L15.4848 14.3017C15.5932 14.4101 15.7085 14.4644 15.8305 14.4644C15.9525 14.4644 16.0678 14.4101 16.1763 14.3017L17.3153 13.1627C17.4237 13.0542 17.539 13 17.661 13C17.7831 13 17.8983 13.0542 18.0068 13.1627L19.1458 14.3017C19.2542 14.4101 19.3695 14.4644 19.4915 14.4644C19.6136 14.4644 19.7288 14.4101 19.8373 14.3017L20.9763 13.1627C21.0848 13.0542 21.2 13 21.322 13C21.4441 13 21.5593 13.0542 21.6678 13.1627L22.8068 14.3017C22.9153 14.4101 23.0305 14.4644 23.1525 14.4644C23.2746 14.4644 23.3898 14.4101 23.4983 14.3017L24.6373 13.1627C24.7458 13.0542 24.861 13 24.9831 13C25.1051 13 25.2203 13.0542 25.3288 13.1627L26.4678 14.3017C26.5763 14.4101 26.6915 14.4644 26.8136 14.4644C26.9356 14.4644 27.0509 14.4101 27.1593 14.3017L28.2983 13.1627C28.4068 13.0542 28.522 13 28.6441 13C28.7661 13 28.8814 13.0542 28.9898 13.1627L30.1288 14.3017C30.2373 14.4101 30.3526 14.4644 30.4746 14.4644C30.5966 14.4644 30.7119 14.4101 30.8203 14.3017L31.9593 13.1627C32.0678 13.0542 32.1831 13 32.3051 13C32.4271 13 32.5424 13.0542 32.6509 13.1627L33.7899 14.3017C33.8983 14.4101 34.0136 14.4644 34.1356 14.4644C34.2576 14.4644 34.3729 14.4101 34.4814 14.3017L35.6204 13.1627C35.7221 13.061 35.8017 13.0084 35.8593 13.005C35.917 13.0017 35.9526 13 35.9661 13V36.9593C35.9526 36.9593 35.917 36.9644 35.8593 36.9746C35.8017 36.9847 35.7221 36.939 35.6204 36.8373L34.4814 35.6983C34.3729 35.5898 34.2576 35.5356 34.1356 35.5356C34.0136 35.5356 33.8983 35.5898 33.7899 35.6983L32.6509 36.8373C32.5424 36.9458 32.4271 37 32.3051 37C32.1831 37 32.0678 36.9458 31.9593 36.8373L30.8203 35.6983C30.7119 35.5898 30.5966 35.5356 30.4746 35.5356C30.3526 35.5356 30.2373 35.5898 30.1288 35.6983L28.9898 36.8373C28.8814 36.9458 28.7661 37 28.6441 37C28.522 37 28.4068 36.9458 28.2983 36.8373L27.1593 35.6983C27.0509 35.5898 26.9356 35.5356 26.8136 35.5356C26.6915 35.5356 26.5763 35.5898 26.4678 35.6983L25.3288 36.8373C25.2203 36.9458 25.1051 37 24.9831 37C24.861 37 24.7458 36.9458 24.6373 36.8373L23.4983 35.6983C23.3898 35.5898 23.2746 35.5356 23.1525 35.5356C23.0305 35.5356 22.9153 35.5898 22.8068 35.6983L21.6678 36.8373C21.5593 36.9458 21.4441 37 21.322 37C21.2 37 21.0848 36.9458 20.9763 36.8373L19.8373 35.6983C19.7288 35.5898 19.6136 35.5356 19.4915 35.5356C19.3695 35.5356 19.2542 35.5898 19.1458 35.6983L18.0068 36.8373C17.8983 36.9458 17.7831 37 17.661 37C17.539 37 17.4237 36.9458 17.3153 36.8373L16.1763 35.6983C16.0678 35.5898 15.9525 35.5356 15.8305 35.5356C15.7085 35.5356 15.5932 35.5898 15.4848 35.6983L14.3458 36.8373C14.2441 36.939 14.1644 36.9847 14.1068 36.9746C14.0492 36.9644 14.0136 36.9593 14 36.9593ZM18.6169 30.7763H31.4305C31.7221 30.7763 31.9644 30.6796 32.1577 30.4864C32.3509 30.2932 32.4475 30.0508 32.4475 29.7593C32.4475 29.4678 32.3509 29.2254 32.1577 29.0322C31.9644 28.839 31.7221 28.7424 31.4305 28.7424H18.6169C18.3254 28.7424 18.0831 28.839 17.8898 29.0322C17.6966 29.2254 17.6 29.4678 17.6 29.7593C17.6 30.0508 17.6966 30.2932 17.8898 30.4864C18.0831 30.6796 18.3254 30.7763 18.6169 30.7763ZM18.6169 26.0169H31.4305C31.7221 26.0169 31.9644 25.9203 32.1577 25.7271C32.3509 25.5339 32.4475 25.2915 32.4475 25C32.4475 24.7085 32.3509 24.4661 32.1577 24.2729C31.9644 24.0797 31.7221 23.983 31.4305 23.983H18.6169C18.3254 23.983 18.0831 24.0797 17.8898 24.2729C17.6966 24.4661 17.6 24.7085 17.6 25C17.6 25.2915 17.6966 25.5339 17.8898 25.7271C18.0831 25.9203 18.3254 26.0169 18.6169 26.0169ZM18.6169 21.2373H31.4305C31.7221 21.2373 31.9644 21.1407 32.1577 20.9474C32.3509 20.7542 32.4475 20.5118 32.4475 20.2203C32.4475 19.9288 32.3509 19.6864 32.1577 19.4932C31.9644 19.3 31.7221 19.2034 31.4305 19.2034H18.6169C18.3254 19.2034 18.0831 19.3 17.8898 19.4932C17.6966 19.6864 17.6 19.9288 17.6 20.2203C17.6 20.5118 17.6966 20.7542 17.8898 20.9474C18.0831 21.1407 18.3254 21.2373 18.6169 21.2373ZM16.0339 33.9492H33.9322V16.0508H16.0339V33.9492Z" fill="#333333" fill-opacity="0.4"/>
</svg>
