<svg width="102" height="104" viewBox="0 0 102 104" fill="none" xmlns="http://www.w3.org/2000/svg">
<rect width="102" height="104" rx="51" fill="#FFC3B7"/>
<path d="M61 50.5C61.7083 50.5 62.3021 50.2604 62.7812 49.7812C63.2604 49.3021 63.5 48.7083 63.5 48C63.5 47.2917 63.2604 46.6979 62.7812 46.2187C62.3021 45.7396 61.7083 45.5 61 45.5C60.2917 45.5 59.6979 45.7396 59.2188 46.2187C58.7396 46.6979 58.5 47.2917 58.5 48C58.5 48.7083 58.7396 49.3021 59.2188 49.7812C59.6979 50.2604 60.2917 50.5 61 50.5ZM43.0833 44.6666H51.4167C52.0069 44.6666 52.5017 44.4663 52.9011 44.0656C53.3004 43.6649 53.5 43.1683 53.5 42.576C53.5 41.9837 53.3004 41.4896 52.9011 41.0937C52.5017 40.6979 52.0069 40.5 51.4167 40.5H43.0833C42.4931 40.5 41.9983 40.7004 41.5989 41.1011C41.1996 41.5018 41 41.9983 41 42.5906C41 43.183 41.1996 43.677 41.5989 44.0729C41.9983 44.4687 42.4931 44.6666 43.0833 44.6666ZM35.5208 75.5C34.6181 75.5 33.7606 75.1949 32.9483 74.5849C32.1361 73.9747 31.5978 73.2312 31.3333 72.3542C30.2916 68.7986 29.43 65.7263 28.7483 63.1372C28.0665 60.5481 27.5233 58.2747 27.1185 56.3171C26.7137 54.3594 26.4261 52.6228 26.2556 51.1073C26.0852 49.5917 26 48.1393 26 46.75C26 42.9167 27.3333 39.6667 30 37C32.6667 34.3333 35.9167 33 39.75 33H52.25C53.375 31.5 54.8021 30.2917 56.5312 29.375C58.2604 28.4583 60.1667 28 62.25 28C63.2917 28 64.1771 28.3646 64.9062 29.0937C65.6354 29.8229 66 30.7083 66 31.75C66 32 65.9688 32.25 65.9062 32.5C65.8438 32.75 65.7708 32.9792 65.6875 33.1875C65.5208 33.6458 65.3646 34.1042 65.2188 34.5625C65.0729 35.0208 64.9583 35.5208 64.875 36.0625L70.5625 41.75H73.9167C74.5069 41.75 75.0017 41.9496 75.4011 42.3489C75.8004 42.7483 76 43.2431 76 43.8333V57.6667C76 58.1317 75.8715 58.5431 75.6146 58.9009C75.3576 59.2586 75 59.5139 74.5417 59.6667L68.9406 61.5124L65.6458 72.5209C65.3673 73.4268 64.8625 74.1498 64.1315 74.6899C63.4005 75.2299 62.565 75.5 61.625 75.5H55.1666C54.0208 75.5 53.0399 75.092 52.2239 74.276C51.408 73.4601 51 72.4792 51 71.3334V70.5H46V71.3334C46 72.4792 45.592 73.4601 44.7761 74.276C43.9601 75.092 42.9792 75.5 41.8334 75.5H35.5208ZM35.375 71.3334H41.8334V66.3334H55.1666V71.3334H61.625L65.5417 58.2917L71.8334 56.1459V45.9166H68.8333L60.5834 37.6667C60.6111 36.9167 60.7049 36.0695 60.8646 35.125C61.0243 34.1805 61.25 33.1666 61.5417 32.0833C59.9445 32.5 58.5348 33.1493 57.3125 34.0312C56.0903 34.9132 55.2014 35.9583 54.6458 37.1666H39.75C37.1032 37.1666 34.8442 38.1021 32.9732 39.9732C31.1021 41.8442 30.1666 44.1032 30.1666 46.75C30.1666 48.4861 30.618 51.4965 31.5208 55.7812C32.4236 60.066 33.7083 65.25 35.375 71.3334Z" fill="#6F0B19"/>
</svg>
