<svg width="102" height="104" viewBox="0 0 102 104" fill="none" xmlns="http://www.w3.org/2000/svg">
<rect width="102" height="104" rx="51" fill="#FFC3B7"/>
<path d="M28.1195 71.9322C27.519 71.9322 27.0156 71.7291 26.6093 71.3229C26.2031 70.9166 26 70.4132 26 69.8127V65.5736C26 64.1464 26.3603 62.8253 27.081 61.6101C27.8016 60.3948 28.8543 59.4693 30.2391 58.8334C32.9945 57.5617 35.6722 56.6009 38.2722 55.9509C40.8722 55.3009 43.564 54.9759 46.3476 54.9759C47.5911 54.9759 48.8734 55.0465 50.1946 55.1878C51.5158 55.3291 52.8476 55.5693 54.19 55.9085L50.6291 59.4693C49.9085 59.3845 49.1984 59.3209 48.499 59.2785C47.7995 59.2361 47.0824 59.2149 46.3476 59.2149C43.7053 59.2149 41.3137 59.4834 39.173 60.0204C37.0322 60.5573 34.6478 61.4334 32.0195 62.6486C31.4119 62.9453 30.9632 63.3693 30.6736 63.9203C30.3839 64.4714 30.239 65.0225 30.239 65.5736V67.6932H49.0607L53.2998 71.9322H28.1195ZM60.5853 72.0806C60.3064 72.0806 60.0469 72.0346 59.8067 71.9428C59.5665 71.851 59.3334 71.692 59.1073 71.4659L53.1725 65.5312C52.7628 65.1214 52.5579 64.6269 52.5579 64.0475C52.5579 63.4682 52.7628 62.9736 53.1725 62.5638C53.5823 62.1541 54.0769 61.9492 54.6562 61.9492C55.2355 61.9492 55.7301 62.1541 56.1399 62.5638L60.5909 67.0149L72.418 55.1878C72.8278 54.778 73.3224 54.5732 73.9017 54.5732C74.481 54.5732 74.9756 54.778 75.3854 55.1878C75.7951 55.5976 76 56.0921 76 56.6715C76 57.2509 75.7951 57.7454 75.3854 58.1552L62.0746 71.4659C61.8485 71.692 61.6135 71.851 61.3695 71.9428C61.1255 72.0346 60.8641 72.0806 60.5853 72.0806ZM46.3476 51.4998C43.5498 51.4998 41.2254 50.5743 39.3743 48.7232C37.5233 46.8721 36.5977 44.5477 36.5977 41.7499C36.5977 38.9521 37.5233 36.6277 39.3743 34.7766C41.2254 32.9256 43.5498 32 46.3476 32C49.1454 32 51.4699 32.9256 53.3209 34.7766C55.172 36.6277 56.0975 38.9521 56.0975 41.7499C56.0975 44.5477 55.172 46.8721 53.3209 48.7232C51.4699 50.5743 49.1454 51.4998 46.3476 51.4998ZM46.3476 47.2607C47.9161 47.2607 49.2267 46.7344 50.2793 45.6817C51.3321 44.629 51.8584 43.3184 51.8584 41.7499C51.8584 40.1814 51.3321 38.8709 50.2793 37.8182C49.2267 36.7655 47.9161 36.2391 46.3476 36.2391C44.7792 36.2391 43.4686 36.7655 42.4159 37.8182C41.3631 38.8709 40.8368 40.1814 40.8368 41.7499C40.8368 43.3184 41.3631 44.629 42.4159 45.6817C43.4686 46.7344 44.7792 47.2607 46.3476 47.2607Z" fill="#6F0B19"/>
</svg>
